<?xml version="1.0" standalone="no"?>

<svg xmlns="http://www.w3.org/2000/svg"
     xmlns:xlink="http://www.w3.org/1999/xlink"
     width="737.28pt" height="368.64pt"
     viewBox="0 0 560 368.64">
   <style>
   g {
      @media (prefers-color-scheme: light) {
         stroke: #e66789;
      }
      @media (prefers-color-scheme: dark) {
         stroke: #fcfcfc;
      }
   }

   #lra1 {
      animation: hand-writing1 1.5s linear forwards;
      animation-delay: 1s;
      stroke-dasharray: 500;
      stroke-dashoffset: 500;
   }
   @keyframes hand-writing1 {
      0% {stroke-dashoffset: 500;}
      100% {stroke-dashoffset: 0;}
   }

   #lra2 {
      animation: hand-writing2 0.5s linear forwards;
      animation-delay: 3s;
      stroke-dasharray: 200;
      stroke-dashoffset: 300;
   }
   @keyframes hand-writing2 {
      0% {stroke-dashoffset: 200;}
      100% {stroke-dashoffset: 0;}
   }
   </style>
   <g fill="none" stroke="#e66789" stroke-width="2.0" stroke-linecap="square"
      stroke-linejoin="bevel">
      <path transform="translate(-8.34749985637128, 18.7266562739462)"
         d="M0 9.59939C10.2033 -13.2648 148.583 33.9385 174.758 37.253C241.335 45.6835 280.584 -4.85485 330.01 0.381535C353.359 2.85514 370.36 15.4123 391.464 23.536" />
      <path transform="translate(382.597689423278, 42.0246033290795)"
         d="M0.518795 0.238076C-2.68496 -3.20455 9.80854 31.9625 14.4856 23.5713" />
      <path transform="translate(383.116484283053, 42.2626795419551)"
         d="M0 0C3.27731 4.71473 19.5018 13.38 13.9668 23.3332" />
      <path transform="translate(363.267933819928, 11.0012502476099)"
         d="M6.12729 0.52159C10.9849 -2.88702 0 11.3023 0 17.2365C0 19.3041 0.590115 25.4788 0.590115 23.4112" />
      <path transform="translate(361.456667441946, 12.2711360778437)"
         d="M10.2409 0.0464213C9.56453 -1.32484 8.18969 28.1685 0 24.3467" />
      <path transform="translate(286.111331398262, 22.2807887836749)"
         d="M7.81374 0.223796C-3.94286 -3.0331 -0.73635 30.2454 6.34276 35.8612" />
      <path transform="translate(290.116958767542, 24.0487916006959)"
         d="M0.230812 0C-1.2141 1.71714 4.52879 1.56876 6.25903 2.99796C15.404 10.5518 14.6253 29.429 4.34654 35.0193C2.69987 35.9148 3.1054 35.2611 2.33714 34.0932" />
      <path transform="translate(202.552581020085, 24.9489396948018)"
         d="M1.00516 1.34832C-0.511229 -5.72817 -0.765344 17.0714 3.50346 22.9155C4.7997 24.6901 9.38385 29.4341 8.0607 27.6795" />
      <path transform="translate(203.557744134221, 25.4260732192599)"
         d="M0 0.871187C0.908576 -1.27545 3.52255 1.12658 4.9966 1.88558C16.9664 8.04897 12.4626 19.597 7.20199 27.8636C6.56091 28.871 6.47464 28.1885 7.05554 27.2024" />
      <path transform="translate(155.443677702584, 54.3837956752728)"
         d="M6.01558 0.185157C8.3046 -1.03967 2.46515 4.12326 1.50788 6.53644C-0.40705 11.3637 -1.2923 21.8302 3.81019 25.1035" />
      <path transform="translate(157.735504588492, 54.5581254382205)"
         d="M3.72376 0.0108277C3.55654 -0.634885 11.7018 27.8083 0 29.5166" />
      <path transform="translate(233.866910832058, 25.0456611207972)"
         d="M20.8026 8.13269C23.6177 8.13269 16.168 11.3889 13.6006 12.5435C2.20746 17.6671 -4.27531 7.07307 3.21111 7.07307C12.2272 7.07307 -3.84877 -0.762596 12.0801 0.0605999C15.4379 0.234131 20.9889 6.59596 22.5686 9.41199" />
      <path transform="translate(237.204403504901, 17.5502756926805)"
         d="M17.4651 15.6281C17.2822 19.5432 16.871 -8.83713 18.2986 2.83722C18.746 6.49606 27.9278 -2.0241 28.4921 1.99942C29.2826 7.63621 20.7603 9.53136 19.0825 13.3344C18.5224 14.604 26.127 7.90308 29.1791 6.71819C31.6538 5.75747 37.0616 4.92604 38.7351 7.90919C39.6456 9.53225 32.6745 11.3333 34.5203 11.5705C46.5224 13.1131 39.704 26.2457 24.8652 17.7452C23.111 16.7402 17.3425 16.4677 19.1816 15.6281C33.2351 9.21234 38.0792 35.7021 26.0907 36.7538C22.4588 37.0724 16.903 22.0692 16.5347 18.626C16.3829 17.2075 17.0993 13.1121 16.3882 14.3488C14.5975 17.4631 17.9452 28.8799 17.7601 32.8297C17.6437 35.3161 12.6677 40.4094 12.3199 37.9448C9.86862 20.5728 8.62331 39.2201 1.39198 34.0186C-5.21732 29.2645 13.6481 22.8193 17.4651 15.6281" />
      <path transform="translate(106.916803960949, 26.3055981804385)"
         d="M17.5935 18.7375C16.5284 20.3632 15.1924 16.3695 14.4555 15.3411C10.6186 9.98634 8.99996 -10.3928 16.1225 6.69615C17.6655 10.3982 19.6668 5.83385 22.8851 5.15194C26.3304 4.42193 14.1182 15.5544 17.348 14.1501C22.0149 12.121 26.7189 9.76769 31.4612 13.1788C35.7543 16.2668 20.0094 14.0721 26.512 16.5752C38.3845 21.1454 24.4858 19.952 19.6503 17.4582C12.8234 13.9374 22.7984 21.1394 24.5521 22.5733C25.9935 23.7518 26.9009 27.5245 24.9441 28.8362C23.2548 29.9686 18.1691 21.4746 19.5038 26.4995C20.5142 30.3032 18.5362 37.5403 15.3386 31.1752C10.5705 21.6839 19.3139 9.05465 7.79197 26.0149C6.94216 27.2658 3.08438 31.8829 2.5477 29.0128C1.43332 23.0533 -2.66489 15.516 6.41791 13.1788C21.6203 9.26688 -1.67348 18.2883 0.0967809 4.04924C0.105122 3.98215 0.053469 3.13873 0.0967809 3.12315C11.7483 -1.0673 3.67944 15.3842 16.0234 15.3842" />
      <path transform="translate(302.647583354914, 123.769666551173)"
         d="M0 0C5.76423 12.5765 16.7282 25.5039 32.0514 17.1112" />
      <path transform="translate(301.803338466325, 123.146298198929)"
         d="M0.844245 0.623368C-3.71614 -2.65691 11.4374 8.16938 16.7235 6.26823" />
      <path transform="translate(313.037058987956, 114.506578927269)"
         d="M0 0C3.26888 1.89575 0.639645 12.0725 5.4898 14.9079" />
      <path transform="translate(313.037058987956, 114.506578927269)"
         d="M0 0C7.83246 0 40.6174 27.0376 18.8191 27.0376" />
      <path transform="translate(72.0867466884912, 178.683187574583)" id="lra1"
         d="M24.3909 6.74492C27.5955 -1.55933 25.9649 -1.46566 23.8999 3.08362C16.5665 19.2394 14.9014 38.4968 8.56117 55.2593C6.21174 61.4708 3.81253 67.6618 1.70162 73.9599C0.66501 77.0528 -0.707901 86.7207 0.426629 83.6624C9.39727 59.4806 67.4507 25.4854 91.9699 39.029C98.761 42.7801 72.2116 62.6985 71.1436 63.5058C68.7164 65.3405 60.4621 69.3064 63.2524 68.0932C64.8545 67.3966 120.105 88.8656 126.324 91.2929C135.363 94.8215 143.701 98.9023 152.101 103.731C154.679 105.212 162.285 105.695 160.089 107.7C149.834 117.063 125.04 114.305 111.915 121.417C111.852 121.451 111.719 120.422 111.719 120.269C111.719 110.648 111.998 99.9043 112.848 90.2333C112.859 90.102 113.19 89.3702 113.19 89.529" />
      <path transform="translate(129.365886110988, 217.958684872818)" id="lra2"
         d="M9.2081 0.0614445C10.4082 -0.749644 7.78425 6.71367 7.49375 8.04523C4.28343 22.7603 3.33676 37.8972 0.289605 52.6786C0.195677 53.1343 -0.281746 54.9515 0.24007 53.693" />
      <path transform="translate(81.7792918173373, 266.675770993493)"
         d="M7.29823 39.9521C7.09969 40.4904 5.06822 40.5581 4.45534 40.6133C-6.39795 41.5913 7.42273 2.55697 20.7761 7.48931C35.6922 12.9989 17.1217 50.3307 1.85797 41.0096C-5.8027 36.3314 12.1667 5.03934 20.5306 10.8426C32.7347 19.3105 15.2332 45.7087 5.09284 38.7159C-2.68398 33.353 12.1684 10.6631 19.0596 13.664C26.1318 16.7436 9.35469 41.5431 4.16244 37.9212C-2.38264 33.3556 11.9261 11.5726 17.8342 16.3561C22.7965 20.374 13.6037 31.4354 10.9746 33.9971C-8.9606 53.4215 29.063 0.958465 19.0101 24.8676C18.1883 26.8221 16.8177 28.5002 15.2863 29.9395C-3.86168 47.9364 13.7344 9.86775 20.382 16.4423C28.051 24.027 0.676643 42.8211 6.36783 30.5124C8.15891 26.6388 19.9955 10.0308 20.186 22.2659C20.2647 27.3186 17.5458 33.3366 12.7385 35.6727C8.01329 37.9689 11.0521 29.4253 11.905 27.9107C22.7366 8.67682 25.1385 34.1531 13.0314 33.6891C9.98651 33.5725 7.32161 31.786 8.47416 28.4836C9.26102 26.229 16.366 15.2607 19.4516 16.929C24.2801 19.5396 15.288 35.411 10.7291 33.2476C8.34958 32.1185 10.6688 27.4596 11.3666 26.1016C28.1766 -6.61242 5.17233 46.5229 17.0997 21.0297C17.7847 19.5657 21.9238 12.6044 20.6771 18.428C17.0415 35.4099 20.4301 -5.59168 26.7548 0.653447C28.6413 2.51626 27.7651 6.19754 26.9013 8.3271C20.7974 23.3748 14.2815 13.8787 21.853 4.97593C37.1005 -12.9525 12.3265 31.1047 19.5507 7.13825C23.8015 -6.9642 25.9575 18.324 17.3927 13.048C3.59819 4.55063 36.4973 3.88171 20.5306 11.1075C20.3536 11.1876 23.4566 5.94089 23.9615 6.96165C28.4021 15.9405 9.77252 35.6736 4.94639 42.2006C-0.634158 49.7478 4.09605 52.7372 9.01258 42.6421C17.3168 25.5911 3.0156 53.9677 4.65133 49.0364" />
      <path transform="translate(400.06204325285, 150.677670896529)"
         d="M21.231 0.258838C0.342609 -2.80174 -1.58597 21.9792 0.794514 37.617" />
      <path transform="translate(397.542381006352, 185.308724677731)"
         d="M4.88207 0.427358C8.5198 -2.36914 2.56426 9.30663 1.40384 13.7459C-0.198345 19.8751 -3.32739 54.2717 11.7933 44.7075" />
      <path transform="translate(405.662945808637, 195.669560714203)"
         d="M1.36829 0.0790994C-1.34888 -1.67253 0.544385 26.2064 2.20177 30.2891C3.01939 32.3032 4.9317 34.4981 3.67275 34.3467" />
      <path transform="translate(407.031230847998, 195.372336425019)"
         d="M0 0.376324C1.57899 -1.95504 0.818316 7.22525 1.17592 9.28405C2.57982 17.3665 5.92802 41.3484 18.2311 41.3484" />
      <path transform="translate(412.760743924922, 183.707292352905)"
         d="M0.985741 0C3.36087 0 -0.161472 4.68846 0.00580484 7.05769C0.779865 18.0211 0.982875 42.3056 9.8547 50.2783" />
      <path transform="translate(411.054303666088, 165.869067591178)"
         d="M2.00515 0.0206186C0.120399 -0.345697 0.322247 4.27513 0.241264 5.4458C-0.461845 15.6099 0.118128 24.1097 5.436 33.0111C7.70635 36.8113 14.0838 48.2046 13.0321 43.9045" />
      <path transform="translate(415.502046626632, 167.525997790273)"
         d="M2.4097 0.965365C2.70989 -3.78303 -0.174229 10.2812 0.00832302 15.0355C0.358827 24.164 2.63648 33.3577 5.5455 41.9827" />
      <path transform="translate(418.741500575825, 162.27116867578)"
         d="M0.100652 0.000292215C-0.48955 -0.0965009 1.32639 23.8867 10.6366 21.7893" />
      <path transform="translate(425.996762030537, 165.361085442207)"
         d="M0 0.879655C1.90342 -4.04624 -0.393518 13.1853 3.9219 16.2291" />
      <path transform="translate(432.714016676924, 163.949229817497)"
         d="M0.241368 1.10266C-1.05638 -4.77739 3.04678 14.6557 8.52452 17.1564" />
      <path transform="translate(439.229129005954, 167.778266746927)"
         d="M0 0.624794C0.168515 -3.28476 0.0968676 12.3378 5.29165 14.695" />
      <path transform="translate(428.643666166733, 170.013358128851)"
         d="M0 0.0652854C0.400498 -1.08702 2.66916 13.4198 5.97869 11.6199" />
      <path transform="translate(442.821429117946, 169.107558906522)"
         d="M0.672037 0.309897C-2.28777 -2.35054 5.23938 13.0082 9.44408 12.4826" />
      <path transform="translate(450.244026638584, 168.058645344469)"
         d="M0.354514 0.387489C-1.05732 -2.45076 2.00452 11.1257 5.01083 14.3693" />
      <path transform="translate(418.058203327512, 186.578631255397)"
         d="M0 0.0835451C1.54508 -0.410495 14.0338 1.3762 13.8203 3.08366C13.6598 4.36799 6.2327 10.3068 6.27374 10.3158" />
      <path transform="translate(443.544299702154, 185.784269448847)"
         d="M8.18063 1.00928C11.2026 -0.518328 8.36784 -0.204431 6.02477 1.23111C-8.0428 9.84998 6.33391 0.452885 10.8275 8.46326" />
      <path transform="translate(424.379329153171, 205.14661598712)"
         d="M0 0.170958C4.28221 -1.42899 13.0859 8.84511 13.0859 4.27377" />
      <path transform="translate(441.776962686279, 202.493903225834)"
         d="M0 7.89565C3.30312 7.89565 8.2159 2.68293 12.2524 1.80928C13.7639 1.48214 19.7088 -0.0679704 19.5535 0.00231645" />
      <path transform="translate(435.876946545712, 197.689148864039)"
         d="M0.0677815 0C-0.476556 0.488302 2.41865 4.85128 3.00974 5.46826" />
      <path transform="translate(438.886689821531, 198.388787974601)"
         d="M0 4.76862C1.80166 6.39209 7.47575 -1.40754 5.68363 0.226454" />
      <path transform="translate(457.606698569956, 175.988411617246)"
         d="M0 0C2.26081 10.9669 9.31047 21.0081 9.31047 32.7256" />
      <path transform="translate(464.369334035907, 184.136605401116)"
         d="M4.06835 0.716458C4.06835 -2.81668 5.65808 7.68255 5.53718 11.2136C5.288 18.491 3.98082 26.5559 0 32.8261" />
      <path transform="translate(467.016238172104, 204.525010319112)"
         d="M3.08626 0C2.22117 3.90564 2.6899 23.0426 0 24.8753" />
      <path transform="translate(467.701116540948, 202.539293790575)"
         d="M8.08716 0C4.74834 1.03111 6.23377 30.2574 0 30.2574" />
      <path transform="translate(446.93827174317, 150.699086267708)"
         d="M0.278951 1.47365C-1.9612 -1.21782 9.984 0.517443 11.4028 0.943838C19.6772 3.43047 24.0617 16.6156 24.3401 23.967" />
      <path transform="translate(474.745463930872, 175.655672449559)"
         d="M0.159798 0.201363C-0.658561 -0.785481 1.90224 2.11663 2.51164 3.24455C8.42668 14.1924 6.66295 27.5457 5.84558 39.3213C5.75648 40.6049 3.81963 55.4621 6.77598 54.5824" />
      <path transform="translate(473.925325616299, 214.492359661923)"
         d="M0 0C3.21592 3.40705 0.0748424 14.7998 7.59612 15.7457" />
      <path transform="translate(432.216668854548, 210.412102408805)"
         d="M0.738716 0.418958C0.952029 -0.721802 0.0442762 0.755533 0.00430225 1.43335C-0.295517 6.51725 15.1915 12.9018 10.0987 12.9018" />
      <path transform="translate(424.528495697436, 211.808785434911)"
         d="M4.21209 0.0818979C8.19258 -0.872488 -3.14971 6.82946 0.880305 6.82946C5.79181 6.82946 13.4274 10.4139 17.7869 11.5052" />
      <path transform="translate(442.279907180106, 209.170288297155)"
         d="M5.47574 0.0304168C3.89429 -0.707593 -0.434634 12.211 0.0354819 14.1436" />
      <path transform="translate(445.158280419255, 209.200705095093)"
         d="M2.59737 0C18.9572 3.5508 16.122 6.22339 0 13.5834" />
      <path transform="translate(436.435344662513, 223.313937645534)"
         d="M5.88004 0C6.60444 3.21256 -3.18334 6.83862 1.07943 11.0248C3.02128 12.9318 8.93292 18.2753 7.64608 15.8771" />
      <path transform="translate(442.307021858037, 223.313937645534)"
         d="M0.00836722 0C-0.325288 3.03256 9.44701 3.19725 6.57717 8.11516C5.46611 10.0191 3.43922 16.1411 3.43922 13.9366" />
      <path transform="translate(445.746242037792, 237.250566339856)"
         d="M0 0C8.17074 12.4711 9.84941 24.6505 8.4296 38.547C8.2536 40.2697 6.61618 58.6124 6.61618 54.4694" />
      <path transform="translate(440.348131176265, 244.405849426139)"
         d="M2.06633 1.79767C0.51105 -0.974783 3.24361 -1.21557 1.5279 5.98663C-1.94797 20.5777 0.0854792 39.0995 12.0143 47.3141" />
      <path transform="translate(457.566425468872, 236.007254781167)"
         d="M0.186725 0.00708457C-1.4594 -0.0964455 8.27718 0.970242 9.84179 0.890104" />
      <path transform="translate(457.753150548199, 236.014339347036)"
         d="M0 0C3.49244 5.09253 -0.808646 13.1146 7.89118 13.409C8.42521 13.427 12.9868 14.1277 12.9868 13.8936" />
      <path transform="translate(467.408212584461, 236.897358627622)"
         d="M0 0C2.57066 0.649728 4.81856 10.4454 3.33178 13.0105" />
      <path transform="translate(457.998672982314, 215.85996269405)"
         d="M0 0C2.97005 0 6.75014 3.628 9.26309 4.98367" />
      <path transform="translate(473.420709907052, 230.471063678795)"
         d="M0.211712 0.559601C-1.22967 -2.00981 5.16093 4.93611 5.16093 7.8822" />
      <path transform="translate(473.941253717498, 233.589266883768)"
         d="M0.229594 0C-0.69663 0 1.4665 6.58594 1.65104 7.10077C3.68765 12.7826 6.56263 18.9018 4.68992 24.3455C4.22041 25.7103 1.17648 31.4911 1.45505 30.8734" />
      <path transform="translate(458.609989412379, 268.578593083699)"
         d="M12.9635 0.867718C12.0138 -3.34397 16.0741 8.94154 18.0592 12.7756C21.3645 19.1596 27.8268 29.0069 29.0366 36.2833C29.1267 36.8254 29.9436 38.9417 29.6246 39.3717C29.4301 39.6337 26.1968 34.3709 25.3624 33.5502C21.1264 29.384 11.0285 27.8148 5.66027 27.242C3.71995 27.035 -0.364674 30.7432 0.0261804 28.8314" />
      <path transform="translate(405.954378066796, 235.149564660604)"
         d="M8.281 0.733399C10.2567 -2.78845 1.0202 7.31016 2.15586 11.1853C6.51088 26.0459 3.42541 28.645 2.44876 43.338C2.08009 48.8844 0 65.3919 0 59.8332" />
      <path transform="translate(401.31736458977, 294.982797645686)"
         d="M4.63701 0C1.64441 2.80985 -4.74417 11.2676 5.95939 12.7026C7.15669 12.8631 14.1435 14.8908 14.1435 14.2898" />
      <path transform="translate(414.82333757278, 291.76300782989)"
         d="M0 14.8649C1.79232 13.2284 6.76264 2.67108 6.76264 0" />
      <path transform="translate(404.242856447725, 297.218569390549)"
         d="M0.778967 0.719112C-3.33926 -1.40475 9.99413 1.76991 14.5498 2.61653" />
      <path transform="translate(392.447060799423, 306.582655804799)"
         d="M8.06706 0C11.4363 1.04051 -1.87132 4.26556 0.225415 7.10077C4.28529 12.5905 14.8699 11.4543 19.29 5.90977C20.842 3.96304 19.9774 3.86196 23.0138 2.68998" />
      <path transform="translate(422.910501959611, 245.570468893703)"
         d="M0 0.986259C2.29608 -4.43853 -2.17528 14.0769 1.61743 18.5842" />
      <path transform="translate(421.811708058165, 264.15465622542)"
         d="M2.71623 0C6.30197 8.45993 5.61898 22.7766 4.18505 31.7542C3.93771 33.3028 0.322492 41.7514 0.0693226 41.6333C-0.646211 41.2994 4.40825 35.9751 4.62656 35.7687C9.42518 31.2338 16.9182 36.0576 21.6322 33.0335C25.8202 30.3469 28.3749 33.331 32.2177 34.4894C32.5298 34.5835 33.2042 34.0234 32.9521 33.8713" />
      <path transform="translate(411.639739330068, 301.687283061452)"
         d="M14.553 0C15.4611 2.57689 12.2788 4.77529 10.9262 7.54228C5.74168 18.1481 -8.15338 42.6522 6.56492 19.715C10.3402 13.8316 15.8451 9.1129 20.9732 4.54217C21.8453 3.76489 31.5717 10.1129 32.9306 10.7168C35.6965 11.9461 62.7235 6.63289 65.6174 7.67365C68.5094 8.71376 72.0694 17.8444 74.342 20.4645C78.3587 25.0954 96.7236 28.1856 92.4245 23.8157" />
      <path transform="translate(485.635067831546, 305.765860261556)"
         d="M0.00210863 0.0220782C-0.0937538 -0.410712 3.10579 5.64389 4.11999 7.25638C7.09295 11.9831 11.5044 16.2841 17.1068 17.5769" />
      <path transform="translate(471.445006601652, 299.998175709991)"
         d="M1.84282 0.674712C1.84282 -3.1647 -2.02836 10.5626 1.45085 12.1863" />
      <path transform="translate(473.287828769827, 300.67288774156)"
         d="M0 0C4.67384 1.8485 15.1427 15.7889 15.1427 21.5672" />
      <path transform="translate(448.660703206328, 303.496237513924)"
         d="M0.223488 8.07009C-1.11 8.07009 3.89785 1.27915 5.36869 0.00015822C5.41449 -0.0396669 10.7275 7.45198 12.0818 7.45198" />
      <path transform="translate(463.491972367561, 302.309032786861)"
         d="M0.435852 6.9636C0.435852 2.10479 -1.61472 -2.89962 3.17967 2.02515C4.68449 3.57089 7.96103 9.19825 6.90558 7.31681" />
      <path transform="translate(429.477150219384, 300.339533467545)"
         d="M0 8.36021C0.325492 8.7114 1.85493 5.68293 2.20539 5.09735C9.38018 -6.89061 4.55299 5.41643 9.70244 10.0358" />
      <path transform="translate(453.39552031789, 315.495537216008)"
         d="M1.51474 0.173602C1.99701 -1.2697 0.68387 6.70988 0.338816 8.46537C-2.01898 20.4609 8.72429 31.9717 8.08139 43.924C8.07556 44.0323 8.03401 45.5233 8.03401 45.115" />
      <path transform="translate(473.465750459131, 317.19921601267)"
         d="M0.263588 0.0119767C-0.731435 -0.345882 1.39388 7.42893 1.6355 8.17237C4.49379 16.9671 2.74541 25.4126 2.17608 34.5466C1.94197 38.3025 2.52164 49.3145 1.19399 45.7933" />
      <path transform="translate(446.579726090442, 314.607293489371)"
         d="M0 0.00222295C1.70647 -0.147467 0.65083 7.30801 0.687032 8.69027C0.969745 19.4848 2.55003 21.4971 6.81217 32.773C8.31824 36.7575 10.3389 49.4407 9.55599 45.2537" />
      <path transform="translate(427.093537743494, 312.846775457122)"
         d="M4.34348 0.395138C6.66442 -2.47415 1.59869 11.1371 0.76618 13.7158C-2.73357 24.5565 6.89132 36.6663 6.89132 48.2483" />
      <path transform="translate(414.282394355236, 327.212856743647)"
         d="M0.00251683 0.0109132C-0.174288 -0.415499 9.01461 11.7982 11.6648 11.3889" />
      <path transform="translate(445.34541051972, 332.648954226587)"
         d="M0.400832 0C-1.55189 0 4.16327 1.07325 6.08661 1.41068" />
      <path transform="translate(478.237929761896, 327.004091947524)"
         d="M1.22457 7.10077C-5.34265 7.10077 16.497 5.78678 19.6021 0" />
      <path transform="translate(481.913419547259, 240.690034123017)"
         d="M0 0C8.54363 8.78467 -3.35723 36.8929 7.44967 46.6191C12.9621 51.5803 17.1203 52.817 10.7815 60.2908C10.2321 60.9386 6.10864 63.1492 5.83223 61.9233" />
      <path transform="translate(485.184783238963, 289.822519118163)"
         d="M0.109954 2.60168C-0.838528 4.88919 4.59222 0 7.06858 0" />
      <path transform="translate(491.072670640445, 295.865816926272)"
         d="M6.22898 0C4.63589 1.59309 11.7649 4.46759 13.7756 5.33688C25.4 10.3626 4.7068 11.1183 1.18069 11.5546C0.906832 11.5885 -0.0765899 11.8447 0.00476607 11.5546" />
      <path transform="translate(512.13532973717, 294.595606866926)"
         d="M0.259485 0.563795C-0.38031 2.29971 0.0815664 1.05141 2.56395 0.563795C11.0311 -1.09939 21.5694 1.44681 30.252 1.44681C30.6615 1.44681 31.7832 1.26262 31.4774 1.53512" />
      <path transform="translate(512.493884827848, 323.416931499598)"
         d="M28.1791 0.057237C28.8484 -0.156491 7.1666 0.154808 0 2.26263" />
      <path transform="translate(338.519703202333, 325.149751458293)"
         d="M65.4253 5.20551C71.538 4.41738 53.1077 6.14204 46.9486 5.91192C40.6702 5.67734 0.859235 7.28482 0 0" />
      <path transform="translate(340.293828236454, 291.498102045714)"
         d="M59.3868 1.94049C62.4587 5.16988 50.4986 1.26014 46.0575 0.883019C35.6996 0.00345312 25.4703 0 15.0851 0C10.3116 0 -3.80163 2.42723 0.97185 2.42723" />
      <path transform="translate(342.413148707267, 301.972360868671)"
         d="M4.68261 9.37429C-1.17156 10.7876 -1.27507 0.737229 2.91873 0.0229021C4.26495 -0.2064 5.5912 1.34281 6.44865 2.13999C11.0805 6.44629 6.52884 13.3779 3.21378 7.69871C2.78786 6.96905 4.53616 6.38126 4.53616 5.53639" />
      <path transform="translate(351.776300310715, 301.843717866025)"
         d="M3.35709 6.76773C6.33896 10.6002 0.218479 -3.24966 5.51295 0.724431C11.2865 5.05813 5.44396 11.5843 2.8682 8.44331C-7.56077 -4.27415 14.3852 2.90616 6.73841 5.92994C5.70789 6.33743 3.27339 4.12332 4.28964 3.68147" />
      <path transform="translate(364.867149764163, 300.876696598675)"
         d="M0.851701 9.05713C1.85272 9.91574 -3.45402 -2.78181 5.16557 4.16175C9.9976 8.05421 2.18372 11.8572 0.36281 6.19054C-1.42776 0.618292 3.86829 -3.0094 6.24243 3.41226C9.4029 11.9609 -1.24752 2.71262 1.98024 3.45749" />
      <path transform="translate(345.720774649639, 304.330415729635)"
         d="M34.4064 0.180375C35.7739 0.1139 35.4143 -0.131469 34.7014 0.0920734C26.0476 2.80588 17.4101 0.837323 8.62866 0.354825C5.93371 0.206751 -2.15537 0.796335 0.543654 0.796335" />
      <path transform="translate(332.167310244074, 294.59026920879)"
         d="M30.5622 21.2102C23.0734 27.9107 -5.86094 23.8734 1.06074 9.34548C8.8234 -6.94758 37.3785 0.544254 45.3625 12.9637C49.1582 18.8681 26.7889 29.9051 26.7889 22.8858" />
   </g>
</svg>